<svg width="20" height="20" viewBox="0 0 20 20" fill="none" xmlns="http://www.w3.org/2000/svg">
<path d="M10 1.66663C5.40002 1.66663 1.66669 5.39996 1.66669 9.99996C1.66669 14.6 5.40002 18.3333 10 18.3333C14.6 18.3333 18.3334 14.6 18.3334 9.99996C18.3334 5.39996 14.6 1.66663 10 1.66663ZM10 4.16663C11.3834 4.16663 12.5 5.28329 12.5 6.66663C12.5 8.04996 11.3834 9.16663 10 9.16663C8.61669 9.16663 7.50002 8.04996 7.50002 6.66663C7.50002 5.28329 8.61669 4.16663 10 4.16663ZM10 16C7.91669 16 6.07502 14.9333 5.00002 13.3166C5.02502 11.6583 8.33335 10.75 10 10.75C11.6584 10.75 14.975 11.6583 15 13.3166C13.925 14.9333 12.0834 16 10 16Z" fill="#F3F3F3"/>
</svg>
