<svg width="10" height="12" viewBox="0 0 10 12" fill="none" xmlns="http://www.w3.org/2000/svg">
<path d="M8.88889 1.2H6.56667C6.33333 0.504 5.72222 0 5 0C4.27778 0 3.66667 0.504 3.43333 1.2H1.11111C0.5 1.2 0 1.74 0 2.4V10.8C0 11.46 0.5 12 1.11111 12H8.88889C9.5 12 10 11.46 10 10.8V2.4C10 1.74 9.5 1.2 8.88889 1.2ZM5 1.2C5.30556 1.2 5.55556 1.47 5.55556 1.8C5.55556 2.13 5.30556 2.4 5 2.4C4.69444 2.4 4.44444 2.13 4.44444 1.8C4.44444 1.47 4.69444 1.2 5 1.2ZM3.88889 9.6L1.66667 7.2L2.45 6.354L3.88889 7.902L7.55 3.948L8.33333 4.8L3.88889 9.6Z" fill="black"/>
</svg>
