<svg width="8" height="10" viewBox="0 0 8 10" fill="none" xmlns="http://www.w3.org/2000/svg">
<path d="M7.11111 1H5.25333C5.06667 0.42 4.57778 0 4 0C3.42222 0 2.93333 0.42 2.74667 1H0.888889C0.4 1 0 1.45 0 2V9C0 9.55 0.4 10 0.888889 10H7.11111C7.6 10 8 9.55 8 9V2C8 1.45 7.6 1 7.11111 1ZM4 1C4.24444 1 4.44444 1.225 4.44444 1.5C4.44444 1.775 4.24444 2 4 2C3.75556 2 3.55556 1.775 3.55556 1.5C3.55556 1.225 3.75556 1 4 1ZM4.88889 8H1.77778V7H4.88889V8ZM6.22222 6H1.77778V5H6.22222V6ZM6.22222 4H1.77778V3H6.22222V4Z" fill="#F7F3F3"/>
</svg>
