<?xml version="1.0" encoding="utf-8"?>
<svg width="13px" height="11px" viewBox="0 0 13 11" version="1.1" xmlns:xlink="http://www.w3.org/1999/xlink" xmlns="http://www.w3.org/2000/svg">
  <defs>
    <path d="M0 0L13 0L13 11L0 11L0 0Z" id="path_1" />
    <clipPath id="mask_1">
      <use xlink:href="#path_1" />
    </clipPath>
  </defs>
  <g id="email-g">
    <path d="M0 0L13 0L13 11L0 11L0 0Z" id="Background" fill="none" fill-rule="evenodd" stroke="none" />
    <g clip-path="url(#mask_1)">
      <path d="M11.7 0L1.3 0C0.585 0 0.00649999 0.578753 0.00649999 1.28612L0 9.00282C0 9.71019 0.585 10.2889 1.3 10.2889L11.7 10.2889C12.415 10.2889 13 9.71019 13 9.00282L13 1.28612C13 0.578753 12.415 0 11.7 0L11.7 0ZM11.7 2.57224L6.5 5.78753L1.3 2.57224L1.3 1.28612L6.5 4.50141L11.7 1.28612L11.7 2.57224L11.7 2.57224Z" id="Shape" fill="#FFFFFF" fill-rule="evenodd" stroke="none" />
    </g>
  </g>
</svg>