<svg width="10" height="8" viewBox="0 0 10 8" fill="none" xmlns="http://www.w3.org/2000/svg">
<path fill-rule="evenodd" clip-rule="evenodd" d="M7.12274 4.56509C7.74547 5.03009 8.18183 5.66007 8.18183 6.50006V8.00003H10V6.50006C10 5.41008 8.37729 4.76509 7.12274 4.56509Z" fill="black"/>
<path d="M3.63636 3.99993C4.64051 3.99993 5.45454 3.10452 5.45454 1.99997C5.45454 0.895415 4.64051 0 3.63636 0C2.6322 0 1.81818 0.895415 1.81818 1.99997C1.81818 3.10452 2.6322 3.99993 3.63636 3.99993Z" fill="black"/>
<path fill-rule="evenodd" clip-rule="evenodd" d="M6.36364 3.99993C7.36819 3.99993 8.18182 3.10495 8.18182 1.99997C8.18182 0.894985 7.36819 0 6.36364 0C6.15 0 5.95 0.049999 5.75909 0.119998C6.13637 0.634989 6.36364 1.28998 6.36364 1.99997C6.36364 2.70995 6.13637 3.36494 5.75909 3.87993C5.95 3.94993 6.15 3.99993 6.36364 3.99993Z" fill="black"/>
<path fill-rule="evenodd" clip-rule="evenodd" d="M3.63636 4.49966C2.42273 4.49966 0 5.16965 0 6.49963V7.9996H7.27273V6.49963C7.27273 5.16965 4.85 4.49966 3.63636 4.49966Z" fill="black"/>
</svg>
