<svg width="10" height="16" viewBox="0 0 10 16" fill="none" xmlns="http://www.w3.org/2000/svg">
<path d="M5 0C2.23571 0 0 2.4153 0 5.40163C0 6.74432 0.357143 8.00213 1.00714 9.13647C1.68571 10.3248 2.57857 11.3434 3.26429 12.5318C3.6 13.1105 3.84286 13.6507 4.1 14.2757C4.28571 14.7001 4.43571 15.4332 5 15.4332C5.56429 15.4332 5.71429 14.7001 5.89286 14.2757C6.15714 13.6507 6.39286 13.1105 6.72857 12.5318C7.41429 11.3511 8.30714 10.3325 8.98571 9.13647C9.64286 8.00213 10 6.74432 10 5.40163C10 2.4153 7.76429 0 5 0ZM5 7.5237C4.01429 7.5237 3.21429 6.65944 3.21429 5.59454C3.21429 4.52965 4.01429 3.66539 5 3.66539C5.98571 3.66539 6.78571 4.52965 6.78571 5.59454C6.78571 6.65944 5.98571 7.5237 5 7.5237Z" fill="#C4C4C4"/>
</svg>
