<svg width="10" height="10" viewBox="0 0 10 10" fill="none" xmlns="http://www.w3.org/2000/svg">
<path d="M7.50008 3.33335H7.08341V2.50002C7.08341 1.35002 6.15008 0.416687 5.00008 0.416687C3.85008 0.416687 2.91675 1.35002 2.91675 2.50002V3.33335H2.50008C2.04175 3.33335 1.66675 3.70835 1.66675 4.16669V8.33335C1.66675 8.79169 2.04175 9.16669 2.50008 9.16669H7.50008C7.95841 9.16669 8.33341 8.79169 8.33341 8.33335V4.16669C8.33341 3.70835 7.95841 3.33335 7.50008 3.33335ZM5.00008 7.08335C4.54175 7.08335 4.16675 6.70835 4.16675 6.25002C4.16675 5.79169 4.54175 5.41669 5.00008 5.41669C5.45841 5.41669 5.83341 5.79169 5.83341 6.25002C5.83341 6.70835 5.45841 7.08335 5.00008 7.08335ZM6.29175 3.33335H3.70841V2.50002C3.70841 1.78752 4.28758 1.20835 5.00008 1.20835C5.71258 1.20835 6.29175 1.78752 6.29175 2.50002V3.33335Z" fill="black"/>
</svg>
