<?xml version="1.0" encoding="utf-8"?>
<svg width="13px" height="14px" viewBox="0 0 13 14" version="1.1" xmlns:xlink="http://www.w3.org/1999/xlink" xmlns="http://www.w3.org/2000/svg">
  <defs>
    <path d="M0 0L13 0L13 14L0 14L0 0Z" id="path_1" />
    <clipPath id="mask_1">
      <use xlink:href="#path_1" />
    </clipPath>
  </defs>
  <g id="phone-g">
    <path d="M0 0L13 0L13 14L0 14L0 0Z" id="Background" fill="none" fill-rule="evenodd" stroke="none" />
    <g clip-path="url(#mask_1)">
      <path d="M2.61444 5.78867C3.65444 7.89161 5.33 9.60815 7.37389 10.6856L8.96278 9.05083C9.15778 8.8502 9.44667 8.78332 9.69944 8.87249C10.5083 9.14743 11.3822 9.29605 12.2778 9.29605C12.675 9.29605 13 9.63044 13 10.0391L13 12.6325C13 13.0412 12.675 13.3756 12.2778 13.3756C5.49611 13.3756 0 7.7207 0 0.743089C0 0.33439 0.325 0 0.722222 0L3.25 0C3.64722 0 3.97222 0.33439 3.97222 0.743089C3.97222 1.67195 4.11667 2.56366 4.38389 3.39592C4.46333 3.656 4.40556 3.94581 4.20333 4.15387L2.61444 5.78867L2.61444 5.78867Z" id="Shape" fill="#FFFFFF" stroke="none" />
    </g>
  </g>
</svg>